<svg width="50" height="50" viewBox="0 0 50 50" fill="none" xmlns="http://www.w3.org/2000/svg">
<path d="M12.0832 23.5415L4.1665 45.8332L26.4582 37.9373" stroke="black" stroke-width="5" stroke-linecap="round" stroke-linejoin="round"/>
<path d="M8.3335 6.25H8.35433" stroke="black" stroke-width="5" stroke-linecap="round" stroke-linejoin="round"/>
<path d="M45.8335 16.6665H45.8543" stroke="black" stroke-width="5" stroke-linecap="round" stroke-linejoin="round"/>
<path d="M31.25 4.1665H31.2708" stroke="black" stroke-width="5" stroke-linecap="round" stroke-linejoin="round"/>
<path d="M45.8335 41.6665H45.8543" stroke="black" stroke-width="5" stroke-linecap="round" stroke-linejoin="round"/>
<path d="M45.8332 4.1665L41.1665 5.729C39.8381 6.17148 38.7047 7.06159 37.9599 8.24718C37.2151 9.43277 36.9052 10.8402 37.0832 12.229C37.2915 14.0207 35.8957 15.6248 34.0623 15.6248H33.2707C31.479 15.6248 29.9373 16.8748 29.604 18.6248L29.1665 20.8332" stroke="black" stroke-width="5" stroke-linecap="round" stroke-linejoin="round"/>
<path d="M45.8332 27.0833L44.1248 26.3958C42.3332 25.6874 40.3332 26.8124 39.9998 28.7083C39.7707 30.1666 38.4998 31.2499 37.0207 31.2499H35.4165" stroke="black" stroke-width="5" stroke-linecap="round" stroke-linejoin="round"/>
<path d="M22.9167 4.1665L23.6042 5.87484C24.3125 7.6665 23.1875 9.6665 21.2917 9.99984C19.8333 10.2082 18.75 11.4998 18.75 12.979V14.5832" stroke="black" stroke-width="5" stroke-linecap="round" stroke-linejoin="round"/>
<path d="M22.9166 27.0836C26.9374 31.1044 28.8124 35.7711 27.0832 37.5002C25.3541 39.2294 20.6874 37.3544 16.6666 33.3336C12.6457 29.3127 10.7707 24.6461 12.4999 22.9169C14.2291 21.1877 18.8957 23.0627 22.9166 27.0836Z" stroke="black" stroke-width="5" stroke-linecap="round" stroke-linejoin="round"/>
</svg>
