<svg width="458" height="87" viewBox="0 0 458 87" fill="none" xmlns="http://www.w3.org/2000/svg">
<g clip-path="url(#clip0_327_5373)">
<path d="M60.638 29.0461C71.5195 35.367 80.9737 37.5351 75.6111 46.0718C70.8398 53.6704 48.2272 46.1125 48.2272 58.7136C48.2272 58.8291 48.234 73.4284 48.234 73.4284V75.2091H32.7783V54.4181C32.7783 47.0301 38.406 37.9973 54.5481 37.9973C65.7831 37.9973 70.3165 42.9113 72.8041 42.9113C74.211 42.9113 75.346 41.1985 73.5109 39.0508C71.404 36.5904 59.5165 33.3212 46.6436 31.0715C31.7724 28.4683 31.9355 11.6602 46.8407 11.6602H95.0768V13.8215L63.9276 13.706C50.9391 13.706 49.7565 22.7252 60.638 29.0393V29.0461Z" fill="#FAFAFA"/>
<path d="M124.128 30.9704C135.009 37.2913 135.777 41.7907 133.256 46.0659C128.688 53.7937 105.872 46.1066 105.872 58.7077C105.872 67.02 112.893 73.0487 126.588 73.0487L152.728 72.9671V75.21H122.028C94.9903 75.21 90.4297 64.3285 90.4297 55.5472C90.4297 47.4728 95.3437 37.9914 112.2 37.9914C123.434 37.9914 127.975 42.9054 130.455 42.9054C131.862 42.9054 133.004 41.1926 131.162 39.0449C129.055 36.5845 122.612 34.6202 109.746 32.3773C94.8611 29.781 96.2341 11.6611 111.139 11.6611L152.721 11.0244L180.734 13.8224L127.642 13.7069C114.653 13.7069 113.246 24.6495 124.128 30.9636V30.9704Z" fill="#FAFAFA"/>
<path d="M172.949 41.0726C173.513 44.5185 183.26 40.3114 189.268 41.7251C194.515 42.9621 196.996 46.4148 197.03 50.656V75.2056H177.652V72.0655L177.605 49.6908C178.278 43.8253 170.319 45.8915 170.319 40.1279C170.319 35.3906 177.646 32.5768 177.646 27.0851C177.646 26.4326 177.822 19.2825 177.822 19.2825V13.6072H151.628V11.5479H222.755V13.6072H197.03L197.016 25.4742C196.935 28.7231 194.427 32.135 189.152 35.3022C183.933 38.4355 172.487 38.2588 172.949 41.0726Z" fill="#FAFAFA"/>
<path d="M290.272 11.5479V75.0764H272.39V43.533H244.238C246.644 45.239 247.806 47.7606 247.826 50.6628V75.2124H228.449V72.0723L228.401 49.6976C228.401 43.8321 221.115 45.8983 221.115 40.1347C221.115 35.3974 228.442 32.5836 228.442 27.0919C228.442 26.4394 228.619 19.2893 228.619 19.2893V11.5479H247.826L247.813 25.4743C247.731 28.7231 245.223 32.135 239.949 35.3023C234.729 38.4355 223.29 38.2588 223.746 41.0794C224.228 44.0564 231.575 41.3173 237.441 41.4329L272.383 41.4668V11.5479H290.265H290.272Z" fill="#FAFAFA"/>
<path d="M329.845 30.9695C340.727 37.2904 341.495 41.7898 338.973 46.065C334.413 53.7928 311.59 46.1057 311.59 58.7068C311.59 67.0191 318.611 73.0478 332.306 73.0478L358.446 72.9662V75.2091H327.745C300.708 75.2091 296.147 64.3276 296.147 55.5463C296.147 47.4719 301.061 37.9905 317.917 37.9905C329.152 37.9905 333.692 42.9045 336.173 42.9045C337.58 42.9045 338.722 41.1917 336.88 39.044C334.773 36.5836 328.33 34.6193 315.464 32.3764C300.592 29.7801 301.965 11.6602 316.871 11.6602H358.453V13.8215L333.373 13.706C320.384 13.706 318.978 24.6486 329.859 30.9627L329.845 30.9695Z" fill="#FAFAFA"/>
<path d="M425.212 56.0117V75.1104H407.357V59.5188C406.922 43.8389 388.829 53.5785 384.323 45.9526C381.801 41.6775 382.57 37.1781 393.451 30.8572C404.326 24.5363 402.96 13.7092 389.971 13.7092H378.777V75.0764H362.812V11.5479H406.446C416.621 11.5479 420.135 14.7083 420.135 21.0224C420.135 27.3365 414.521 31.5505 407.853 32.2505C395.266 33.5759 388.551 36.4645 386.444 38.9181C384.602 41.0658 385.737 42.7786 387.144 42.7786C389.625 42.7786 392.506 37.919 403.734 37.919C418.871 37.919 424.152 45.9934 425.069 53.4834C425.178 54.333 425.219 55.1757 425.219 56.0049L425.212 56.0117Z" fill="#FAFAFA"/>
<path fill-rule="evenodd" clip-rule="evenodd" d="M114.267 43.3787H76.0684V41.4688H114.267V43.3787Z" fill="#FAFAFA"/>
<path fill-rule="evenodd" clip-rule="evenodd" d="M377.83 43.3787H339.631V41.4688H377.83V43.3787Z" fill="#FAFAFA"/>
<path fill-rule="evenodd" clip-rule="evenodd" d="M311.626 43.3787H273.427V41.4688H311.626V43.3787Z" fill="#FAFAFA"/>
</g>
<rect x="1.9924" y="1.13401" width="454.014" height="84.4915" rx="42.2458" stroke="#FAFAFA" stroke-width="2.09223"/>
<defs>
<clipPath id="clip0_327_5373">
<rect width="392.441" height="63.6645" fill="white" transform="translate(32.7783 11.5479)"/>
</clipPath>
</defs>
</svg>
