<svg width="36" height="36" viewBox="0 0 36 36" fill="none" xmlns="http://www.w3.org/2000/svg">
<path d="M16.5455 12.652C20.5903 15.0015 24.1045 15.8074 22.1111 18.9805C20.3376 21.805 11.9324 18.9957 11.9324 23.6796C11.9324 23.7225 11.9349 29.1492 11.9349 29.1492L11.7597 34.3503L6.18945 31.2557L6.18989 22.0829C6.18989 19.3367 8.28173 15.9792 14.2819 15.9792C18.458 15.9792 20.1431 17.8058 21.0678 17.8058C21.5907 17.8058 22.0126 17.1691 21.3305 16.3708C20.5473 15.4562 16.1287 14.241 11.3437 13.4048C5.81599 12.4372 5.87662 6.18949 11.417 6.18949L30.9462 6.18945V6.99284L17.7683 6.94993C12.9404 6.94993 12.5008 10.3024 16.5455 12.6494V12.652Z" fill="#FAFAFA"/>
<rect x="0.464189" y="0.464189" width="34.6068" height="35.0716" rx="17.3034" stroke="#FAFAFA" stroke-width="0.928379"/>
</svg>
