<svg width="457" height="87" viewBox="0 0 457 87" fill="none" xmlns="http://www.w3.org/2000/svg">
<g clip-path="url(#clip0_515_11)">
<path d="M59.6917 28.9579C70.5732 35.2788 80.0274 37.447 74.6648 45.9836C69.8935 53.5823 47.2809 46.0244 47.2809 58.6255C47.2809 58.741 47.2877 73.3403 47.2877 73.3403V75.121H31.832V54.3299C31.832 46.942 37.4597 37.9092 53.6019 37.9092C64.8368 37.9092 69.3702 42.8232 71.8578 42.8232C73.2647 42.8232 74.3997 41.1104 72.5646 38.9627C70.4577 36.5023 58.5702 33.233 45.6973 30.9833C30.8261 28.3802 30.9892 11.572 45.8944 11.572H94.1306V13.7334L62.9813 13.6178C49.9928 13.6178 48.8102 22.637 59.6917 28.9511V28.9579Z" fill="#FAFAFA"/>
<path d="M123.18 30.8823C134.062 37.2032 134.83 41.7026 132.308 45.9777C127.741 53.7055 104.925 46.0185 104.925 58.6195C104.925 66.9319 111.946 72.9605 125.641 72.9605L151.781 72.879V75.1219H121.08C94.043 75.1219 89.4824 64.2404 89.4824 55.4591C89.4824 47.3846 94.3964 37.9033 111.252 37.9033C122.487 37.9033 127.027 42.8173 129.508 42.8173C130.915 42.8173 132.057 41.1045 130.215 38.9567C128.108 36.4963 121.665 34.5321 108.799 32.2892C93.9139 29.6929 95.2868 11.5729 110.192 11.5729L151.774 10.9363L179.787 13.7343L126.694 13.6187C113.706 13.6187 112.299 24.5614 123.18 30.8755V30.8823Z" fill="#FAFAFA"/>
<path d="M172.003 40.9845C172.567 44.4304 182.313 40.2233 188.322 41.637C193.569 42.874 196.05 46.3267 196.084 50.5678V75.1174H176.706V71.9774L176.659 49.6027C177.331 43.7372 169.373 45.8033 169.373 40.0398C169.373 35.3025 176.699 32.4886 176.699 26.9969C176.699 26.3444 176.876 19.1943 176.876 19.1943V13.5191H150.682V11.4597H221.809V13.5191H196.084L196.07 25.3861C195.988 28.6349 193.48 32.0469 188.206 35.2141C182.986 38.3474 171.541 38.1707 172.003 40.9845Z" fill="#FAFAFA"/>
<path d="M289.324 11.4597V74.9883H271.442V43.4449H243.29C245.696 45.1509 246.859 47.6724 246.879 50.5746V75.1242H227.502V71.9842L227.454 49.6095C227.454 43.744 220.168 45.8101 220.168 40.0466C220.168 35.3093 227.495 32.4954 227.495 27.0037C227.495 26.3512 227.672 19.2011 227.672 19.2011V11.4597H246.879L246.865 25.3861C246.784 28.6349 244.276 32.0469 239.002 35.2141C233.782 38.3474 222.343 38.1707 222.798 40.9913C223.281 43.9682 230.628 41.2292 236.494 41.3447L271.435 41.3787V11.4597H289.318H289.324Z" fill="#FAFAFA"/>
<path d="M328.899 30.8814C339.781 37.2023 340.549 41.7017 338.027 45.9768C333.467 53.7047 310.643 46.0176 310.643 58.6187C310.643 66.931 317.664 72.9597 331.36 72.9597L357.5 72.8781V75.121H326.799C299.762 75.121 295.201 64.2395 295.201 55.4582C295.201 47.3837 300.115 37.9024 316.971 37.9024C328.206 37.9024 332.746 42.8164 335.227 42.8164C336.634 42.8164 337.776 41.1036 335.934 38.9559C333.827 36.4955 327.384 34.5312 314.517 32.2883C299.646 29.692 301.019 11.572 315.924 11.572H357.506V13.7334L332.427 13.6178C319.438 13.6178 318.031 24.5605 328.913 30.8746L328.899 30.8814Z" fill="#FAFAFA"/>
<path d="M424.266 55.9236V75.0223H406.411V59.4307C405.976 43.7507 387.883 53.4904 383.377 45.8645C380.855 41.5894 381.623 37.09 392.505 30.7691C403.379 24.4482 402.013 13.6211 389.025 13.6211H377.831V74.9883H361.865V11.4597H405.5C415.675 11.4597 419.189 14.6202 419.189 20.9343C419.189 27.2484 413.574 31.4623 406.907 32.1624C394.319 33.4878 387.604 36.3764 385.497 38.83C383.655 40.9777 384.791 42.6905 386.197 42.6905C388.678 42.6905 391.56 37.8308 402.788 37.8308C417.924 37.8308 423.205 45.9053 424.123 53.3952C424.232 54.2448 424.272 55.0876 424.272 55.9168L424.266 55.9236Z" fill="#FAFAFA"/>
<path fill-rule="evenodd" clip-rule="evenodd" d="M113.32 43.2906H75.1211V41.3806H113.32V43.2906Z" fill="#FAFAFA"/>
<path fill-rule="evenodd" clip-rule="evenodd" d="M376.884 43.2906H338.686V41.3806H376.884V43.2906Z" fill="#FAFAFA"/>
<path fill-rule="evenodd" clip-rule="evenodd" d="M310.679 43.2906H272.48V41.3806H310.679V43.2906Z" fill="#FAFAFA"/>
</g>
<defs>
<clipPath id="clip0_515_11">
<rect width="392.441" height="63.6645" fill="white" transform="translate(31.832 11.4597)"/>
</clipPath>
</defs>
</svg>
