<svg width="98" height="100" viewBox="0 0 98 100" fill="none" xmlns="http://www.w3.org/2000/svg">
<path fill-rule="evenodd" clip-rule="evenodd" d="M85.6523 16.8818L88.1169 19.7161L49.001 19.5967C45.7042 19.5968 43.1865 20.1698 41.4339 21.1061C39.6864 22.0397 38.7088 23.327 38.4427 24.7756C38.1754 26.231 38.6152 27.9106 39.8303 29.6422C41.0449 31.3731 43.0225 33.1368 45.7838 34.7391L45.9377 34.8283V34.8352C48.0535 36.0583 50.1126 37.1285 52.0287 38.1243C52.5816 38.4117 53.1227 38.6929 53.6497 38.9698C56.0392 40.2252 58.1485 41.3957 59.7386 42.6451C61.3291 43.8949 62.4394 45.2535 62.7701 46.8977C63.1015 48.5453 62.6363 50.4069 61.2394 52.6305C59.9446 54.6926 57.465 55.6898 54.5887 56.2637C52.5081 56.6789 50.1612 56.8821 47.82 57.0848C46.9204 57.1626 46.0217 57.2404 45.1393 57.3302C41.9341 57.6561 38.9408 58.1389 36.7513 59.3184C35.6631 59.9046 34.7837 60.658 34.1747 61.642C33.5662 62.6252 33.2153 63.8586 33.2153 65.4255L33.2223 80.5095C33.2223 80.5095 33.2223 80.5096 32.9136 80.5098L33.2223 80.5095L33.2223 80.5149L32.7221 96.0625L28.2051 94.4643L24.2933 92.5625L16.7598 86.9748L16.7609 61.0222C16.7609 57.1583 18.2328 52.865 21.8125 49.5393C25.3934 46.2124 31.0545 43.8803 39.3861 43.8803C45.194 43.8803 49.2767 45.1514 52.2282 46.4242C53.2882 46.8814 54.2071 47.3412 54.9978 47.7369C55.3022 47.8892 55.5876 48.032 55.8548 48.1615C56.8393 48.6387 57.545 48.9177 58.1004 48.9177C58.6945 48.9177 59.2234 48.5584 59.4157 47.9765C59.6069 47.398 59.4867 46.5189 58.5903 45.4698C58.1019 44.8996 56.9978 44.2405 55.3449 43.5353C53.7084 42.8372 51.5833 42.1137 49.1066 41.3948C44.1543 39.9574 37.8203 38.5454 31.23 37.3936C23.495 36.0397 19.5809 30.9626 19.6289 26.1363C19.6528 23.728 20.6681 21.4063 22.6625 19.6906C24.6558 17.9757 27.6076 16.8819 31.4852 16.8819L85.6523 16.8818ZM85.6523 17.4996H31.4852C27.7231 17.4996 24.9242 18.5595 23.0653 20.1588C21.2074 21.7571 20.2687 23.9097 20.2465 26.1425C20.2022 30.5984 23.8268 35.4707 31.3364 36.7852C37.9421 37.9397 44.2991 39.3563 49.2787 40.8017C51.768 41.5242 53.9191 42.2556 55.5872 42.9672C57.2389 43.6718 58.4679 44.3773 59.0595 45.0682C60.0442 46.2207 60.283 47.3205 60.0022 48.1703C59.7224 49.0168 58.9485 49.5353 58.1004 49.5353C57.3807 49.5353 56.5493 49.1846 55.5853 48.7173C55.307 48.5824 55.0147 48.4361 54.706 48.2816C53.9196 47.8881 53.0263 47.4411 51.9836 46.9914C49.0947 45.7456 45.0953 44.4979 39.3861 44.4979C31.1703 44.4979 25.6732 46.7956 22.2329 49.9918C18.7912 53.1893 17.3786 57.3126 17.3786 61.0222L17.3774 86.961V87.3244L20.1757 89.4743L24.2933 92.1507L28.8227 94.6213L31.0875 95.5736L32.1388 96.0625V95.5736L32.6047 80.5072L32.5977 65.4255C32.5977 63.7631 32.9712 62.4129 33.6495 61.3169C34.3273 60.2217 35.297 59.4003 36.4584 58.7746C38.7681 57.5303 41.8756 57.0412 45.0768 56.7157C45.982 56.6236 46.8946 56.5446 47.802 56.4661C50.1298 56.2646 52.4231 56.066 54.4679 55.658C57.3136 55.0902 59.5656 54.1347 60.7163 52.3021C62.0681 50.1502 62.4528 48.4524 62.1646 47.0195C61.8757 45.5834 60.8966 44.3405 59.357 43.1308C57.8171 41.9208 55.7555 40.7738 53.3624 39.5166C52.8399 39.2421 52.3019 38.9625 51.7509 38.6761C49.7868 37.6553 47.6573 36.5486 45.4737 35.2802L45.32 35.1909V35.1834C42.5829 33.5727 40.5806 31.7866 39.3247 29.997C38.0459 28.1745 37.5294 26.3291 37.8352 24.664C38.1423 22.9922 39.267 21.5635 41.1429 20.5613C43.0137 19.5618 45.6408 18.9791 49.001 18.9791H49.002L87.4992 19.0964L85.6523 17.4996Z" fill="#FF6B00"/>
<rect x="0.6125" y="0.6125" width="96.775" height="98.0569" rx="48.3875" stroke="#FF6B00" stroke-width="1.225"/>
</svg>
