<svg width="50" height="50" viewBox="0 0 50 50" fill="none" xmlns="http://www.w3.org/2000/svg">
<g clip-path="url(#clip0_104_380)">
<path d="M12.4998 29.1667L15.5207 23.125C15.8685 22.4347 16.4015 21.8548 17.0601 21.4501C17.7187 21.0453 18.4768 20.8318 19.2498 20.8333H41.6665M41.6665 20.8333C42.303 20.8322 42.9313 20.977 43.5032 21.2564C44.0751 21.5359 44.5754 21.9427 44.9656 22.4456C45.3558 22.9484 45.6257 23.534 45.7544 24.1574C45.8831 24.7808 45.8673 25.4254 45.7082 26.0417L42.479 38.5417C42.2478 39.4373 41.7251 40.2305 40.9933 40.7963C40.2615 41.3621 39.3623 41.6683 38.4373 41.6667H8.33317C7.2281 41.6667 6.16829 41.2277 5.38689 40.4463C4.60549 39.6649 4.1665 38.6051 4.1665 37.5V10.4167C4.1665 8.125 6.0415 6.25 8.33317 6.25H16.5207C17.2069 6.25355 17.8817 6.42656 18.485 6.75366C19.0884 7.08077 19.6016 7.55183 19.979 8.125L21.6873 10.625C22.0648 11.1982 22.578 11.6692 23.1813 11.9963C23.7846 12.3234 24.4594 12.4964 25.1457 12.5H37.4998C38.6049 12.5 39.6647 12.939 40.4461 13.7204C41.2275 14.5018 41.6665 15.5616 41.6665 16.6667V20.8333Z" stroke="black" stroke-width="5" stroke-linecap="round" stroke-linejoin="round"/>
</g>
<defs>
<clipPath id="clip0_104_380">
<rect width="50" height="50" fill="white"/>
</clipPath>
</defs>
</svg>
