<svg width="50" height="50" viewBox="0 0 50 50" fill="none" xmlns="http://www.w3.org/2000/svg">
<path d="M31.2502 45.8333V37.5C31.5401 34.8901 30.7917 32.2711 29.1669 30.2083C35.4169 30.2083 41.6669 26.0416 41.6669 18.75C41.8336 16.1458 41.1044 13.5833 39.5836 11.4583C40.1669 9.06246 40.1669 6.56246 39.5836 4.16663C39.5836 4.16663 37.5002 4.16663 33.3336 7.29163C27.8336 6.24996 22.1669 6.24996 16.6669 7.29163C12.5002 4.16663 10.4169 4.16663 10.4169 4.16663C9.79189 6.56246 9.79189 9.06246 10.4169 11.4583C8.89996 13.5747 8.1637 16.1516 8.33355 18.75C8.33355 26.0416 14.5836 30.2083 20.8336 30.2083C20.0211 31.2291 19.4169 32.3958 19.0627 33.6458C18.7086 34.8958 18.6044 36.2083 18.7502 37.5V45.8333" stroke="black" stroke-width="5" stroke-linecap="round" stroke-linejoin="round"/>
<path d="M18.7498 37.4999C9.354 41.6666 8.33317 33.3333 4.1665 33.3333" stroke="black" stroke-width="5" stroke-linecap="round" stroke-linejoin="round"/>
</svg>
